<?xml version="1.0" encoding="UTF-8"?>
<svg width="38mm" height="38mm" version="1.1" viewBox="0 0 38 38" xmlns="http://www.w3.org/2000/svg">
<g transform="translate(-3.1754 -3.704)">
<circle cx="21.487" cy="22.615" r="9.4948" fill="#fff" stroke="#fe0000" stroke-width="4.5094"/>
<path d="m31.744 21.454-1.3395 0.08675s-0.15621 0.03437-0.26333 0.20242c-0.07351 0.13443-0.06948 0.29573-0.09639 0.4561-0.03773 0.76964-0.10803 1.5744-0.16704 2.3609l1.9273 0.42401s0.11091-0.569 0.17082-0.97163c0.05992-0.40263 0.12054-0.89341 0.12789-1.2255 0.0073-0.33625 0.0087-0.5396-0.05455-0.80946-0.0617-0.26335-0.30516-0.52358-0.30516-0.52358zm-20.378 0.0025c-0.07111-5.98e-4 -0.1403 0.0057-0.22358 0.02225-0.0956 0.07357-0.16065 0.18023-0.20897 0.29075-0.06816 0.15589-0.10704 0.32299-0.13633 0.49059-0.09083 0.51966-0.09233 1.0579 0.02732 1.5717 0.04939 0.21206 0.11922 0.4194 0.20897 0.61778 0.04031 0.08908 0.08489 0.17691 0.14349 0.25518 0.05666 0.07569 0.12734 0.14227 0.21136 0.18542l-5.96e-4 0.0046 0.0064-0.0014c8.98e-4 4.56e-4 0.0018 9.87e-4 0.0026 0.0014 0.26895-0.05135 0.34879-0.07123 0.6154-0.14031l0.9927-0.22308s-0.08782-0.59044-0.13634-0.89939l-1.3263 0.14538c-0.11808 0.01786-0.1489 0.0122-0.20897-0.0091-0.03849-0.01937-0.07057-0.05007-0.09559-0.08516-0.02502-0.03508-0.04341-0.07448-0.05892-0.11467-0.05579-0.14452-0.07587-0.30013-0.09082-0.45432-0.0071-0.07421-0.01328-0.14894-0.0075-0.22328 0.0057-0.07434 0.02381-0.14876 0.0621-0.21275 0.03317-0.05543 0.08018-0.10107 0.12719-0.14538 6.67e-4 -6.25e-4 0.0014-0.0013 2e-3 -0.0019 0.4019-0.0091 0.33459 0.02976 0.3312-0.35316 0.0044-0.30938 0.01013-0.47139-0.0015-0.70184-0.09107-0.01119-0.1641-0.01867-0.23521-0.01928zm19.146 1.1282 1.1099 0.0048s0.04676 4.57e-4 0.08993 0.08198c0.04895 0.09242 0.04452 0.15194 0.04452 0.15194l-0.11815 0.96299-1.3264-0.12719 0.0316-0.66816s1.4e-5 -0.1923 0.01292-0.22169c0.01776-0.0925 0.06901-0.18932 0.15571-0.18463zm-0.76067 2.3473c-0.05563 0.18922-0.11744 0.37659-0.18542 0.56173-0.24434 0.66544-0.56795 1.3018-0.96179 1.8912l0.22815 0.18463 0.47608-0.78671 1.5501 0.79863 0.45402-1.0867-1.5425-0.63626 0.28519-0.86739zm-16.611 0.16267-1.9261 0.63596 0.43613 1.1265 1.8352-0.85398zm0.56332 1.3809-0.27257 0.10901 0.45422 0.79952-1.4536 0.96299 0.72679 0.92672 1.3083-1.0357 0.61778 0.67233 0.19983-0.2362c-0.138-0.14092-0.27136-0.28644-0.39976-0.43614-0.46151-0.53807-0.85882-1.1311-1.181-1.7625zm16.662 1.3083c-0.13445 0.23681-0.28007 0.46725-0.43613 0.69042-0.2371 0.33904-0.49844 0.6612-0.78134 0.96309l-1.2356-1.0903-0.69052 0.63596 1.3628 1.5445c0.42087-0.3788 0.8102-0.79252 1.1628-1.2356 0.3456-0.43422 0.65588-0.89655 0.92672-1.3809zm-13.51 2.1441-1.072 1.7171c0.71553 0.48391 1.55 0.85849 2.3167 1.1174 0.24056 0.08103 0.54408 0.17871 0.78839 0.22229l0.05276-0.36608c-0.4295-0.09276-0.82176-0.1878-1.2409-0.35584-0.25699-0.10302-0.47409-0.17727-0.75928-0.32464l0.26353-0.49506c0.31054 0.16283 0.61056 0.2885 0.93188 0.39271 0.30909 0.10024 0.61473 0.2169 0.9293 0.29831l0.08824-0.34372c-0.19267-0.04413-0.38365-0.09574-0.57237-0.15452-0.27189-0.08469-0.53916-0.18443-0.79952-0.2998-0.14014-0.06209-0.2759-0.13357-0.4096-0.20848l0.21275-0.42788c0.2827 0.13057 0.51122 0.20866 0.79644 0.30934 0.299 0.10554 0.604 0.1933 0.90853 0.28161l0.07493-0.28479c-0.13509-0.01689-0.30744-0.09564-0.43832-0.13315-0.23966-0.0687-0.46809-0.17083-0.69956-0.26343-0.48483-0.18454-0.95684-0.45958-1.3719-0.68138zm8.5653 0.51762c-0.04159-0.0015-0.08338 5.06e-4 -0.12471 0.0055-0.08933 0.01073-0.17649 0.03468-0.26343 0.05784-0.16262 0.0433-0.32589 0.08403-0.4882 0.12848-0.21171 0.05797-0.42172 0.12231-0.6296 0.19278-0.19659 0.0582-0.39429 0.11271-0.59294 0.16346-0.16576 0.04235-0.33212 0.08203-0.49913 0.11914l-0.01928 0.05784 0.3148 1.9786c0.35046-0.04854 0.6981-0.11714 1.0407-0.20549 0.58175-0.15004 1.1517-0.35834 1.6703-0.6617 0.09709-0.0568 0.19283-0.11732 0.27625-0.19278 0.07917-0.07161 0.14729-0.15761 0.18632-0.25697 0.02795-0.07116 0.04048-0.14888 0.03209-0.22487-7e-3 -0.06333-0.02871-0.12526-0.06509-0.17757-0.03637-0.05232-0.08765-0.09461-0.14696-0.11785-0.05782-0.02266-0.12097-0.02687-0.18304-0.02892-0.091-0.0031-0.18217-2e-3 -0.27307 0.0033 0.02859-0.02266 0.0565-0.0462 0.08357-0.07065 0.04065-0.0367 0.07988-0.07587 0.10921-0.12212 0.04442-0.07006 0.06416-0.15498 0.05783-0.23769-0.0082-0.10765-0.06083-0.21074-0.1414-0.28261-0.06214-0.05542-0.13965-0.09226-0.2207-0.11129-0.04053-0.0095-0.08192-0.01475-0.12352-0.0163zm-0.71337 0.5191c0.01416-4.62e-4 0.02839-4.27e-4 0.04263 2.99e-4 0.03082 0.0015 0.06196 0.0062 0.08993 0.01928 0.01681 0.0078 0.03224 0.01867 0.04491 0.0322 0.02119 0.02259 0.03391 0.05201 0.04174 0.08198 0.0078 0.02997 0.01115 0.06085 0.0161 0.09142 0.0068 0.04262 0.01693 0.0855 0.01281 0.12848-0.0029 0.03012-0.01309 0.06003-0.0321 0.08357-0.0245 0.0303-0.0611 0.04769-0.09639 0.06419-0.11286 0.0528-0.22549 0.10614-0.34044 0.15422-0.18758 0.07847-0.38098 0.1429-0.57813 0.19268l-0.12213-0.56531c0.20846-0.07676 0.4184-0.14957 0.6296-0.21841 0.0949-0.03093 0.19227-0.06135 0.29145-0.06459zm-5.0446 0.14428-0.05455 0.27257 0.89035 0.12719-0.16356 1.7444 1.1993 0.01809v-1.7261l0.89035-0.07263-0.01819-0.25438c-0.16353 0.0014-0.32706 0.0014-0.49059 0-0.75209-0.0064-1.5039-0.04296-2.2531-0.10911zm5.3762 0.6452c0.0093-3.96e-4 0.01869-2.84e-4 0.02793 4.97e-4 0.01231 9.87e-4 0.02444 0.0033 0.03637 0.0069 0.03106 0.0096 0.05857 0.02872 0.08158 0.05168 0.02302 0.02295 0.04192 0.04969 0.05982 0.07681 0.01596 0.02421 0.03129 0.04901 0.04232 0.07582s0.01767 0.05585 0.01551 0.08477c-0.0019 0.02463-0.01009 0.04853-0.02186 0.07025s-0.02704 0.04139-0.04362 0.05973c-0.05283 0.05842-0.11876 0.10366-0.18761 0.1419-0.07806 0.04336-0.1604 0.07833-0.24365 0.1106-0.06872 0.02662-0.13812 0.05142-0.20838 0.07364-0.15769 0.04984-0.31963 0.08641-0.48343 0.10921l-0.10275-0.52676c0.18602-0.04476 0.3688-0.10299 0.54643-0.1741 0.1314-0.0526 0.26064-0.11243 0.39787-0.14707 0.02724-0.0068 0.05547-0.01272 0.08347-0.01392z" fill="#fff" stroke="#fe0000" stroke-width=".050877px"/>
<path d="m23.19 4.7626-0.74497 2.3257-1.99e-4 0.00109c-0.01037-7.796e-4 -0.02072-0.0018-0.0311-0.00257-0.32218-0.023994-0.64502-0.038633-0.96805-0.043918l9e-3 2.9164c3.3402 0.024664 6.6493 1.4281 8.9888 3.8122s3.6803 5.7192 3.6419 9.0592c-0.03777 3.2848-1.4101 6.5392-3.7521 8.8429-2.3269 2.2887-5.586 3.6047-8.8491 3.5557-5e-6 0.97382-0.0061 1.9476-9e-3 2.9214-1.01e-4 0.02845-1.96e-4 -0.0032-2.96e-4 0.02323 0.0916 0.0039 0.18334 0.0055 0.27505 0.0039 0.22266-0.0032 0.44532-0.0079 0.66776-0.01817 0.0067-3.05e-4 0.01338-7.72e-4 0.02007-7.8e-4l0.81463 2.3523c1.3444-0.0015 2.6883-0.23006 3.9575-0.67343 1.1724-0.40954 2.2806-1.0019 3.2725-1.7491l-0.78422-2.3025c0.08731-0.05736 0.17421-0.11533 0.26025-0.17459 0.46436-0.31986 0.91013-0.66636 1.3401-1.0312 0.0063-0.0054 0.01256-0.01083 0.01888-0.0162l1.9665 1.4178c1.099-0.77427 2.067-1.7342 2.8503-2.8269 0.72357-1.0093 1.2895-2.1313 1.6713-3.313l-1.9358-1.4107c0.0147-0.0369 0.02975-0.07366 0.04412-0.1107 0.19143-0.4935 0.35288-0.99825 0.49506-1.5081 0.03008-0.10788 0.05896-0.21619 0.08724-0.32474l2.3498-0.01122v-9.8e-5c0.43259-1.2729 0.64986-2.6187 0.63984-3.963-0.0092-1.2418-0.21214-2.482-0.5992-3.662l-2.269-6.96e-4c-0.05261-0.18786-0.10964-0.37471-0.17231-0.56014-0.16255-0.48102-0.3581-0.95031-0.5678-1.4127-0.0087-0.01928-0.01773-0.03848-0.02653-0.05773l1.8534-1.3145c-0.3773-1.2904-0.97264-2.5166-1.7533-3.6112-0.72108-1.011-1.5998-1.9095-2.5945-2.6529l-1.9948 1.3993c-9e-3 -0.0075-0.01782-0.01531-0.02683-0.02285-0.46652-0.39029-0.95953-0.7487-1.4719-1.0766-0.05081-0.032514-0.10204-0.064391-0.15323-0.096288l0.73016-2.3204c-1.0805-0.7999-2.2961-1.417-3.5796-1.8171-1.1856-0.36959-2.4286-0.55412-3.6704-0.54504zm-8.4493 1.7261 0.54792 1.139c-0.02759 0.012511-0.05535 0.024727-0.08287 0.037363-1.1346 0.52087-2.2316 1.1291-3.2451 1.8581-4.1048 2.9525-6.6544 7.9446-6.6685 13.001-0.010321 3.7194 1.3112 7.4287 3.671 10.304 2.3598 2.8749 5.7404 4.8943 9.3905 5.6092l-0.26989-3.1093c-1.8925-0.46978-3.6744-1.3797-5.1646-2.6373-1.5205-1.2831-2.7336-2.924-3.5369-4.7442-1.2455-2.822-1.4838-6.0808-0.63765-9.0472 0.55413-1.9427 1.5642-3.7569 2.9435-5.233 0.451-0.48267 0.9402-0.92907 1.4537-1.3447 0.39877-0.32276 0.81308-0.62765 1.2537-0.89035 0.2259-0.13467 0.45836-0.25802 0.69052-0.38158 0.2224-0.11837 0.4447-0.23701 0.67223-0.34521 0.18109-0.08612 0.36537-0.16554 0.54514-0.25438 0.09236-0.04565 0.18358-0.09363 0.27466-0.1418l0.47031 0.9776 2.3258-4.052zm6.6958 9.5122-0.57237 3.9702 0.19625 1.5159a1.1413 1.1413 0 0 0-0.59741 0.50072l-1.0797-0.2359-3.0526 0.79038 3.0708 0.81771 1.0625-0.22706a1.1413 1.1413 0 0 0 0.98673 0.5679 1.1413 1.1413 0 0 0 1.1414-1.1413 1.1413 1.1413 0 0 0-0.71745-1.0597l0.17976-1.5015z" stroke-width=".058061"/>
</g>
</svg>
